<?xml version="1.0" encoding="utf-8"?>
<!-- Generator: Adobe Illustrator 19.2.1, SVG Export Plug-In . SVG Version: 6.00 Build 0)  -->
<svg version="1.1" baseProfile="basic" id="Layer_1"
	 xmlns="http://www.w3.org/2000/svg" xmlns:xlink="http://www.w3.org/1999/xlink" x="0px" y="0px" viewBox="0 0 162 120.8"
	 xml:space="preserve">
<circle fill="#FFFFFF" stroke="#010101" stroke-width="3" stroke-miterlimit="10" cx="81" cy="41" r="38.7"/>
<path fill="#010101" d="M81,77.5c-4.7-7.1,1.8-14.9,4-18.5c1.6-2.6,7.9-13.3-3.3-25.8c1.1,3.4,0.8,7.2,0,9.6c-1,3.1-2,5-3.9,8.1
	c-1.8,3.2-4.7,6.6-5.6,10.2c-1.5,6.1-0.5,13.4,6.1,16.9c-3.7-0.6-19.3-9.2-11.8-26.2c2.8-6.4,6.5-11,4.3-16.2c3.8,2.4,3.6,5.9,3.6,9
	c1.7-1.6,2.5-4,2.4-6.4c-0.1-2.9-1-5.8-1.5-8.5C74.7,26,74.2,24,74,20.7c-0.2-3.2,0.3-6.5,1.3-9.5c0.9-2.3,2.1-4.6,4.3-6.8
	c-2.2,3.8-2,6.1-1.5,9.9c0.4,2.9,2,6.6,3.9,9.9c1.9,3.2,3.9,6.5,6,9.7c2.1,3.4,4,7.2,4.3,11.2c0.2,5.6-1.5,10.3-4.2,15.5v0.1
	c0.9-2.3,4.9-6.2,9.4-3.8c-3.4,0.6-5.1,3.9-5.7,7.5C90.2,73,84,77,81,77.5z"/>
<text transform="matrix(1 0 0 1 8.7286 111.6872)" fill="#010101" font-family="'Orbitron-Regular'" font-size="38.3106px">Firepol</text>
</svg>
